# xmcd
#
# Track frame offsets:
#	150
#	19867
#	40290
#	53427
#	67465
#	90877
#	109530
#	135822
#	152632
#	168982
#	188940
#	205702
#
# Disc length: 4377 seconds
#
# Revision: 1
# Processed by: cddbd v1.5.1PL0 Copyright (c) Steve Scherf et al.
# Submitted via: CDex 1.50Beta5
#
DISCID=9111170c
DTITLE=河島英五 - 大全集Vol.3〜心から心へ〜 Disc 2
DYEAR=1998
DGENRE=
TTITLE0=風は東へ
TTITLE1=ノーダラ峠
TTITLE2=ノーダラの女
TTITLE3=デラシネ酒場
TTITLE4=バザール
TTITLE5=旅からの便り
TTITLE6=水瓶の唄
TTITLE7=風の唄
TTITLE8=今宵今夜は
TTITLE9=ベナレスの車引き
TTITLE10=風は旅人
TTITLE11=心から心へ
EXTD=
EXTT0=
EXTT1=
EXTT2=
EXTT3=
EXTT4=
EXTT5=
EXTT6=
EXTT7=
EXTT8=
EXTT9=
EXTT10=
EXTT11=
PLAYORDER=
